<?xml version="1.0" encoding="utf-8"?>
<svg version="1.0" xmlns="http://www.w3.org/2000/svg" width="590.000000pt" height="423.000000pt" viewBox="136.255 105.241 355.622 171.336" preserveAspectRatio="none" xmlns:bx="https://boxy-svg.com"><defs><bx:export><bx:file format="svg" units="pt" excluded="true"/><bx:file format="svg" path="Untitled 2.svg" units="pt"/></bx:export></defs><g transform="translate(0.000000,423.000000) scale(0.100000,-0.100000)" fill="#000000" stroke="none"><path d="M2642 2945 c-6 -14 -17 -25 -24 -25 -17 -1 -58 -35 -58 -50 0 -6 -9 -20 -20 -32 -11 -12 -20 -33 -21 -47 0 -14 -19 -60 -43 -101 -34 -59 -49 -76 -69 -78 -34 -4 -56 -29 -33 -38 26 -10 19 -42 -30 -127 -43 -74 -56 -118 -40 -134 3 -4 12 -1 18 5 7 7 21 12 33 12 16 0 24 13 39 58 27 83 82 188 103 197 10 4 38 11 61 15 39 6 45 5 53 -14 20 -45 46 -166 42 -190 -4 -19 -1 -26 11 -26 9 0 21 -11 26 -25 5 -14 12 -25 16 -25 7 0 -3 115 -17 188 -15 75 -5 108 33 116 21 4 38 0 58 -14 15 -11 39 -20 53 -20 30 0 37 -25 26 -101 -9 -67 -11 -162 -3 -183 3 -9 14 -16 24 -16 16 0 35 67 55 205 12 82 10 82 98 -1 88 -81 159 -134 182 -134 8 0 17 -4 20 -10 7 -12 65 -14 65 -2 0 10 -64 70 -115 107 -43 32 -135 125 -135 137 0 4 26 15 58 24 67 19 152 60 152 74 0 5 13 24 30 42 20 21 28 39 24 51 -3 10 -2 23 3 30 28 36 0 97 -43 97 -13 0 -26 5 -29 10 -4 7 -41 8 -106 4 -97 -7 -99 -7 -99 15 0 12 -4 19 -10 16 -5 -3 -10 -15 -10 -26 0 -10 -7 -19 -15 -19 -9 0 -12 6 -9 15 9 23 -6 18 -28 -10 -11 -14 -27 -25 -36 -26 -11 0 -12 -2 -4 -6 18 -7 15 -59 -8 -105 -11 -23 -20 -50 -20 -60 0 -10 -7 -36 -16 -58 -15 -37 -19 -40 -54 -40 -46 0 -72 9 -64 21 3 5 -4 9 -15 9 -14 0 -19 5 -15 14 4 10 -2 16 -18 18 -16 2 -22 9 -20 21 2 9 -2 16 -9 15 -16 -4 -29 65 -32 169 -1 46 -2 83 -3 83 0 0 -6 -11 -12 -25z m589 -81 c23 -21 24 -64 3 -105 -11 -23 -41 -43 -126 -85 -107 -52 -142 -63 -151 -46 -8 12 71 246 87 257 22 17 163 1 187 -21z m-629 -150 c-2 -32 -7 -62 -10 -65 -11 -11 -72 -21 -72 -12 0 16 26 79 45 111 28 46 41 35 37 -34z m688 57 c0 -5 -7 -14 -15 -21 -16 -14 -18 -10 -9 14 6 17 24 22 24 7z m-378 -123 c-7 -7 -12 -8 -12 -2 0 6 3 14 7 17 3 4 9 5 12 2 2 -3 -1 -11 -7 -17z"/><path d="M3585 2930 c-19 -37 -24 -40 -113 -59 -64 -14 -76 -20 -79 -39 -2 -19 2 -22 28 -22 16 0 50 5 75 11 25 6 47 9 50 6 5 -4 -23 -119 -46 -191 -5 -17 -17 -60 -26 -96 -8 -36 -20 -81 -25 -100 -13 -51 -11 -70 6 -70 10 0 15 -10 15 -32 l1 -33 20 25 c15 17 19 34 16 55 -2 16 2 53 9 80 8 28 23 88 34 135 24 100 68 230 84 247 6 7 38 18 71 24 57 10 142 46 132 55 -2 2 -21 5 -41 6 -23 1 -36 6 -36 15 0 19 -11 16 -64 -13 -32 -18 -46 -22 -46 -12 0 7 -11 18 -25 25 -23 10 -27 9 -40 -17z"/><path d="M4002 2233 c-8 -24 -11 -25 -17 -10 -7 16 -9 16 -29 -6 -13 -14 -44 -28 -79 -36 -31 -7 -57 -15 -57 -19 0 -9 70 -7 93 3 24 10 23 -24 -3 -77 -11 -23 -20 -50 -20 -60 0 -24 -28 -90 -41 -99 -6 -3 -32 -4 -57 -2 -44 5 -46 4 -27 -10 12 -8 34 -17 50 -19 l30 -3 -3 -136 c-2 -114 0 -138 13 -149 9 -8 19 -9 24 -4 5 5 19 68 31 139 12 72 24 132 26 134 4 4 118 -94 175 -149 32 -31 124 -80 150 -80 32 0 11 27 -75 94 -89 70 -146 128 -146 151 0 8 17 19 43 25 100 26 142 49 185 105 26 33 40 59 36 69 -4 10 0 18 10 22 12 5 14 10 6 19 -6 7 -8 19 -5 27 3 8 -6 25 -21 38 -24 24 -31 25 -145 23 -94 -1 -119 2 -119 12 0 27 -18 25 -28 -2z m168 -44 c59 -13 74 -33 65 -89 -8 -48 -19 -57 -138 -119 -91 -48 -139 -62 -151 -43 -4 7 64 228 78 251 9 14 80 14 146 0z m110 -117 c0 -11 -22 -32 -32 -32 -5 0 -4 9 2 20 11 20 30 28 30 12z m-370 -116 c0 -8 -4 -18 -10 -21 -5 -3 -10 3 -10 14 0 12 5 21 10 21 6 0 10 -6 10 -14z"/><path d="M1734 2227 c-33 -12 -73 -32 -89 -44 -15 -13 -31 -23 -35 -23 -16 0 -81 -60 -122 -111 -30 -38 -43 -64 -44 -88 -1 -18 -7 -37 -15 -42 -11 -6 -11 -11 -2 -20 9 -9 9 -17 1 -33 -11 -20 -11 -20 -19 2 -11 29 -29 28 -29 0 0 -35 19 -149 31 -186 12 -37 52 -62 99 -62 16 0 30 -4 30 -10 0 -32 149 19 208 71 77 67 159 223 137 258 -15 25 -83 10 -183 -39 -56 -27 -102 -53 -102 -57 0 -4 6 -16 13 -25 15 -19 59 -13 114 15 18 10 41 17 52 17 18 0 18 -4 -9 -67 -33 -79 -59 -103 -107 -103 -20 0 -53 -5 -73 -11 -32 -10 -44 -9 -77 7 -36 18 -38 21 -41 73 -3 41 0 57 12 63 10 6 16 23 16 46 0 39 35 123 66 159 11 12 31 42 46 66 30 52 95 87 159 87 21 0 41 5 44 10 9 15 44 2 80 -28 33 -28 43 -17 22 25 -36 69 -90 84 -183 50z"/><path d="M2231 2233 c-5 -10 -13 -14 -17 -10 -9 9 -54 -31 -54 -48 0 -7 -9 -20 -20 -30 -11 -10 -20 -28 -20 -39 0 -12 -21 -59 -48 -106 -37 -67 -52 -86 -72 -88 -36 -5 -49 -21 -27 -33 26 -15 21 -36 -33 -131 -39 -68 -49 -94 -44 -114 5 -18 10 -22 17 -15 6 6 19 11 28 11 15 0 59 70 59 93 0 3 16 39 36 80 38 80 59 97 126 103 28 3 40 -1 46 -14 15 -29 46 -166 43 -189 -2 -15 3 -23 13 -23 9 0 18 -11 22 -25 3 -14 10 -25 16 -25 5 0 6 5 3 10 -4 6 -8 37 -10 68 -2 31 -6 89 -10 129 l-8 71 44 20 c24 11 36 21 27 21 -21 1 -23 12 -5 30 10 10 6 12 -18 9 -26 -3 -30 0 -27 19 2 17 -1 21 -12 17 -10 -4 -16 -1 -17 7 0 8 -2 23 -5 34 -12 64 -21 148 -17 165 7 25 -3 26 -16 3z m-30 -223 c-6 -64 -6 -64 -41 -71 -19 -4 -39 -4 -43 0 -10 10 33 110 58 134 26 27 34 10 26 -63z"/><path d="M3008 2210 c-10 -9 -18 -22 -18 -28 0 -7 -18 -67 -41 -135 -22 -67 -45 -144 -51 -172 -5 -27 -17 -57 -24 -66 -8 -9 -17 -50 -21 -97 -6 -81 -6 -81 20 -87 14 -4 30 -4 36 -1 12 8 154 32 240 41 71 8 136 30 111 38 -8 3 -39 13 -67 23 -50 17 -57 17 -125 1 -40 -9 -90 -19 -110 -23 l-37 -6 6 38 c6 45 38 159 92 328 21 66 36 127 34 137 -7 25 -25 29 -45 9z"/><path d="M3458 2205 c-16 -21 -26 -43 -58 -135 -7 -19 -21 -57 -31 -84 -11 -27 -19 -61 -19 -77 0 -15 -7 -58 -15 -94 -9 -37 -15 -93 -13 -124 3 -53 4 -56 33 -62 17 -3 39 -1 50 3 11 4 83 11 160 16 83 4 140 11 139 17 -1 6 -22 21 -47 34 -42 21 -51 22 -91 12 -55 -14 -163 -15 -171 -1 -6 10 10 115 26 166 9 30 12 32 81 38 75 8 193 40 203 56 11 18 -49 23 -147 10 -54 -7 -102 -10 -105 -6 -9 9 47 149 65 164 9 7 32 12 52 11 19 -1 64 6 100 15 36 9 76 19 89 22 17 3 21 8 13 16 -6 6 -60 10 -137 9 -70 0 -135 3 -144 8 -12 7 -21 3 -33 -14z"/><path d="M4380 2205 c0 -14 16 -66 35 -115 19 -49 35 -92 35 -95 0 -3 16 -31 35 -61 42 -65 43 -77 9 -107 -15 -12 -35 -40 -45 -62 -11 -22 -31 -55 -44 -74 -45 -61 -14 -72 60 -22 26 17 40 35 40 48 0 12 32 61 70 109 39 49 82 110 96 137 27 50 104 137 121 137 5 0 6 9 3 20 -4 11 -2 20 4 20 6 0 11 5 11 11 0 6 10 19 23 30 12 10 17 18 10 19 -6 0 -13 8 -16 18 -3 13 -21 -1 -75 -58 -39 -41 -93 -103 -119 -137 -26 -34 -51 -62 -54 -62 -4 -1 -9 18 -13 41 -10 60 -41 125 -64 132 -10 4 -28 23 -38 44 -23 44 -32 52 -61 52 -18 0 -23 -6 -23 -25z"/><path d="M2555 2207 c-13 -15 -105 -296 -105 -320 0 -10 -9 -37 -20 -60 -29 -60 -47 -172 -30 -192 14 -17 41 -20 55 -6 6 5 64 17 130 26 168 24 229 36 219 44 -5 4 -34 15 -65 25 -55 18 -58 18 -135 -2 -43 -11 -92 -22 -109 -24 -30 -3 -30 -3 -27 42 3 45 24 120 89 324 33 105 38 146 18 152 -5 2 -15 -2 -20 -9z m6 -50 c-8 -8 -11 -7 -11 4 0 20 13 34 18 19 3 -7 -1 -17 -7 -23z"/></g></svg>